<svg width="35" height="35" viewBox="0 0 35 35" fill="none" xmlns="http://www.w3.org/2000/svg">
<g clip-path="url(#clip0)">
<path d="M15.9359 1.33469C15.1648 2.06022 12.0586 4.97977 9.03711 7.82097C6.01289 10.6593 3.11719 13.3844 2.59766 13.8719C2.07812 14.3595 1.33984 15.0531 0.957031 15.4101C0.574219 15.7699 0.202344 16.1211 0.13125 16.1936L0 16.3242L0.902344 17.398C1.39727 17.9872 1.82109 18.4689 1.84023 18.4689C1.86211 18.466 3.48906 16.9569 5.45781 15.114C15.7883 5.44411 17.4562 3.88857 17.4754 3.89437C17.4863 3.90018 18.7605 5.09296 20.3082 6.54693C21.8531 8.0009 25.3449 11.2803 28.0629 13.8371C30.7809 16.3939 33.0176 18.4863 33.0312 18.4863C33.0449 18.4863 33.0641 18.4718 33.0723 18.4573C33.0859 18.4341 33.1023 18.437 33.1297 18.4602C33.1816 18.5037 33.1023 18.5908 34.0566 17.4416C34.475 16.9395 34.8578 16.4809 34.9098 16.4229L35.0027 16.3184L32.7113 14.1737C31.4508 12.9926 28.4895 10.2181 26.127 8.00961C23.7672 5.79818 20.8797 3.09628 19.7094 2.00218L17.5875 0.0142117H17.4645H17.3414L15.9359 1.33469Z" fill="#41522E"/>
<path d="M15.6051 8.00683C14.6098 8.94133 11.859 11.5271 9.49375 13.7502L5.19531 17.7929L5.20078 26.1279L5.20898 34.4629L5.26914 34.5819C5.30195 34.6486 5.38125 34.7502 5.44414 34.8053C5.67109 35.0143 5.37852 34.9998 9.7125 34.9998H13.6172L13.6227 31.3053C13.6309 27.6312 13.6309 27.6138 13.6883 27.4832C13.7594 27.3149 13.8961 27.1698 14.0547 27.0943C14.1777 27.0334 14.1969 27.0334 17.4016 27.0247C20.9672 27.016 20.8141 27.0101 21.0164 27.1988C21.1586 27.3323 21.2379 27.4803 21.2707 27.6718C21.2926 27.7879 21.3008 28.9894 21.3008 31.4214V34.9998L25.3586 34.994L29.4191 34.9853L29.5012 34.9011C29.5477 34.8547 29.6242 34.7183 29.6734 34.5964L29.7637 34.3758L29.7691 26.0757L29.7746 17.7755L23.6496 12.0437C20.177 8.79332 17.5 6.30907 17.4699 6.30907C17.4344 6.30617 16.7945 6.8895 15.6051 8.00683Z" fill="#41522E"/>
</g>
<defs>
<clipPath id="clip0">
<rect width="35" height="35" fill="white"/>
</clipPath>
</defs>
</svg>
